<?xml version="1.0" encoding="utf-8"?>
<!-- Generator: Adobe Illustrator 22.1.0, SVG Export Plug-In . SVG Version: 6.00 Build 0)  -->
<svg version="1.1" id="Ebene_1" xmlns="http://www.w3.org/2000/svg" xmlns:xlink="http://www.w3.org/1999/xlink" x="0px" y="0px"
	 viewBox="0 0 1000 213" style="enable-background:new 0 0 1000 213;" xml:space="preserve">
<style type="text/css">
	.st0{fill:#6A1680;}
	.st1{fill:#AEC90B;}
	.st2{fill:#FFFFFF;}
	.st3{fill:#858685;}
</style>
<path class="st0" d="M338.7,62.6c-6.5,0-11,3.8-11,3.8V107c0,0,6.2,0.8,9.9,0.8c6.5,0,13.5-4.1,13.5-23.4
	C351,64.3,347.1,62.6,338.7,62.6 M337.2,120.4c-12.7,0-27.7-3-27.7-3V25.8h18.2v29.4c0,0,6.7-6.1,16.2-6.1c9.5,0,25.3,2.7,25.3,35.2
	C369.2,117.3,349.7,120.4,337.2,120.4"/>
<path class="st0" d="M385.7,50.4h18.2v68.6h-18.2V50.4z M394.8,41.4c-6.1,0-10.8-5.1-10.8-11c0-6,4.7-11,10.8-11
	c6.1,0,10.8,5.1,10.8,11C405.6,36.3,400.9,41.4,394.8,41.4"/>
<path class="st0" d="M465.2,119.1V70.6c0-4.9-2-6.5-7.8-6.5c-7.8,0-15.6,4.9-15.6,4.9v50h-18.2V50.4h15.2l2.6,7.4
	c0,0,10.3-8.7,22.8-8.7c11.4,0,19.1,5.1,19.1,20.5v49.5H465.2z"/>
<path class="st1" d="M520,120.4c-8.7,0-19.1-3.2-19.1-3.2v-14.6c0,0,12.7,3.5,18.2,3.5c5.8,0,10.1-1.3,10.1-6.2c0-4.3-4-5.8-9-7.6
	l-5.5-1.9c-7-2.5-15.2-7.4-15.2-19.7c0-17,13.1-21.4,26.7-21.4c9.7,0,17.7,3.2,17.7,3.2v14.1c0,0-11.4-3.1-16.9-3.1
	c-7,0-10,1.7-10,5.8c0,4.2,4.4,5.6,9.6,7.5l6.5,2.5c7,2.7,13.6,7.9,13.6,19C546.9,117.8,532.9,120.4,520,120.4"/>
<path class="st1" d="M589.5,120.4c-13.1,0-30.3-2.8-30.3-35.2c0-32.6,20.4-36,32.2-36c8.6,0,14.5,3,14.5,3V66c0,0-9.6-2.8-14.1-2.8
	c-7.4,0-14.4,2.2-14.4,22c0,18.3,5.7,20.9,13.4,20.9c5.6,0,15.2-3,15.2-3v14.4C605.9,117.4,597.8,120.4,589.5,120.4"/>
<path class="st1" d="M662.4,119.1V70.6c0-4.9-1.8-6.5-7.8-6.5c-6.4,0-15.6,4.9-15.6,4.9v50h-18.2V25.8H639v31.7
	c0,0,10.6-8.4,22.5-8.4c11.4,0,19.1,5.3,19.1,20.5v49.5H662.4z"/>
<path class="st1" d="M729.5,62c-7.1,0-13.2,2.3-13.2,22.8c0,20.2,7.4,22.7,13.2,22.7c5.8,0,13.2-2.3,13.2-22.7
	C742.8,63.5,736.7,62,729.5,62 M729.5,120.4c-13.9,0-31.4-4.9-31.4-35.6c0-29.9,17-35.6,31.4-35.6c14.3,0,31.4,4.8,31.4,35.6
	C761,115.8,743.3,120.4,729.5,120.4"/>
<path class="st1" d="M820.7,119.1V70.6c0-4.9-2-6.5-7.8-6.5c-7.8,0-15.6,4.9-15.6,4.9v50h-18.2V50.4h15.2l2.6,7.4
	c0,0,10.3-8.7,22.8-8.7c11.4,0,19.1,5.1,19.1,20.5v49.5H820.7z"/>
<path class="st0" d="M900,66.4c0,0-4.7-3.5-10.4-3.5c-7.7,0-14.3,1.4-14.3,21.9c0,20.7,5.7,22.1,13,22.1c6,0,11.7-4.3,11.7-4.3V66.4
	z M903.5,119.1l-2.1-5.6c0,0-7.1,6.9-18.3,6.9c-10.8,0-26-4.5-26-35.6c0-31.7,19.9-35.6,28.6-35.6c9.5,0,14.3,5.4,14.3,5.4V25.8
	h18.2v93.3H903.5z"/>
<path class="st0" d="M973.1,86.2l-5.2,0.1c-10.3,0.3-14.3,2.7-14.3,11.5c0,7.1,3.2,9.1,7.9,9.1c6.4,0,11.6-3.4,11.6-3.4V86.2z
	 M975.5,119.1l-2-6.1c0,0-6.7,7.4-18.6,7.4c-8.4,0-19.5-3.5-19.5-22.1c0-18.8,15.4-22,25.7-22h11.9v-4.9c0-6.7-3.5-7.5-9.7-7.5
	c-9.7,0-21.7,3.9-21.7,3.9V53.3c0,0,11.8-4.1,24.8-4.1c13.5,0,24.8,3.4,24.8,22.3v47.7H975.5z"/>
<path class="st0" d="M43.8,81.3c3.4,2.4,13.7,7.8,25.3-1.2C97.8,58.1,64,27,64,27c21.3-2.4,36.5,19.6,36.5,19.6s-1.9-40,55.6-42.1
	c-25.9,13.3-21.7,33-21.7,33s20.8-38.5,79.4-24.7c-28.1,8.3-34.2,22.2-34.2,22.2s36.7-18.2,81.7,9.7c-31,4.7-44.4,12.4-44.4,12.4
	s35.7-1.9,69.4,24.3c-20.1-7.3-64.7,1.9-64.7,1.9s38.2,2.8,55.8,19c-26.1-2.9-70.4,6.4-70.4,6.4s23.8,0,42.3,4.9
	c-26.9,17.6-50.7,26.3-82.1,28.9c-42.5,3.4-78.3-11.6-78.3-11.6s27-2.8,32-23.5c0,0-20.5,21-46.6,15C56,118.2,39.9,97.7,34.8,90.6
	c-1.5,0.5-3.2,0.7-5,0.6C19.5,91.1,9,82.5,6.4,72.2C3.8,61.9,10,53.7,20.4,53.9c10.3,0.2,20.8,8.7,23.3,19
	C44.5,75.9,44.5,78.8,43.8,81.3"/>
<path class="st2" d="M78.7,103.7C71.8,98.1,72,87,79.2,79c7.2-8,18.6-9.9,25.6-4.2c6.9,5.7,6.7,16.7-0.4,24.7
	C97.1,107.5,85.7,109.4,78.7,103.7"/>
<path class="st0" d="M90.1,98.3c3.2,2.6,8.3,1.7,11.5-1.9c3.2-3.6,3.3-8.6,0.2-11.1c-3.1-2.6-8.3-1.7-11.5,1.9
	C87.1,90.8,87,95.7,90.1,98.3"/>
<path class="st0" d="M213.2,146.3c0,0,1.1,1.4,0.2,5.5c-0.9,4.1-2.1,5.3-2.1,5.3l59.2-17.8L213.2,146.3z"/>
<path class="st0" d="M154.9,153.6c0,0-1.3,1.6-1.9,5.6c-0.5,4-4.3,4.6-4.3,4.6l43.3-10.6L154.9,153.6z"/>
<path class="st3" d="M116.6,145.4c-2.6-10.3,3.6-18.5,13.9-18.3c10.3,0.2,20.8,8.7,23.3,19c2.6,10.3-3.6,18.5-13.9,18.3
	C129.7,164.2,119.2,155.7,116.6,145.4"/>
<path class="st2" d="M140.3,166.6h-0.4c-11.2-0.2-22.6-9.5-25.4-20.6c-1.4-5.7-0.5-11.1,2.6-15.1c3-3.8,7.6-5.9,13-5.9
	c11.6,0.2,23,9.5,25.8,20.6c1.4,5.7,0.5,11-2.6,15.1C150.4,164.4,145.7,166.6,140.3,166.6"/>
<path class="st1" d="M130.5,129.2c-4.4,0-7.8,1.5-10,4.3c-2.3,2.9-3,7-1.8,11.4c2.4,9.4,11.9,17.2,21.3,17.4h0.3
	c4.1,0,7.5-1.5,9.7-4.3c2.3-2.9,3-7,1.8-11.4C149.5,137.2,139.9,129.4,130.5,129.2L130.5,129.2z"/>
<path class="st3" d="M178.2,140.9c-2.6-10.3,3.7-18.5,13.9-18.3c10.3,0.2,20.8,8.7,23.4,19c2.6,10.3-3.6,18.5-14,18.3
	C191.3,159.7,180.8,151.2,178.2,140.9"/>
<path class="st2" d="M201.9,162l-0.4,0c-11.2-0.2-22.6-9.5-25.4-20.6c-1.4-5.7-0.5-11.1,2.6-15.1c3-3.8,7.6-5.9,13-5.9
	c11.6,0.2,23,9.5,25.8,20.6c1.4,5.7,0.5,11.1-2.6,15.1C212,159.9,207.4,162,201.9,162"/>
<path class="st1" d="M192.1,124.7c-4.4,0-7.8,1.5-10,4.3c-2.3,2.9-3,7-1.9,11.4c2.4,9.4,11.9,17.2,21.3,17.4l0.3,0
	c4.1,0,7.5-1.5,9.7-4.3c2.3-2.9,3-7,1.9-11.4C211.1,132.7,201.5,124.8,192.1,124.7L192.1,124.7z"/>
<g>
	<path class="st0" d="M343.8,188h-6.7v-18.4h-18.8V188h-6.7v-40.7h6.7v16.7h18.8v-16.7h6.7V188z"/>
	<path class="st0" d="M373.7,188l-1.3-4.3h-0.2c-1.5,1.9-3,3.2-4.5,3.8c-1.5,0.7-3.4,1-5.8,1c-3,0-5.4-0.8-7.1-2.5
		c-1.7-1.6-2.6-3.9-2.6-6.9c0-3.2,1.2-5.6,3.5-7.2c2.4-1.6,6-2.5,10.8-2.6l5.3-0.2v-1.6c0-2-0.5-3.4-1.4-4.4c-0.9-1-2.3-1.5-4.3-1.5
		c-1.6,0-3.1,0.2-4.5,0.7c-1.4,0.5-2.8,1-4.2,1.6l-2.1-4.7c1.7-0.9,3.5-1.5,5.5-2c2-0.5,3.9-0.7,5.6-0.7c3.9,0,6.9,0.9,8.9,2.6
		c2,1.7,3,4.4,3,8.1V188H373.7z M363.9,183.6c2.4,0,4.3-0.7,5.7-2c1.4-1.3,2.2-3.2,2.2-5.6v-2.7l-4,0.2c-3.1,0.1-5.3,0.6-6.7,1.5
		c-1.4,0.9-2.1,2.3-2.1,4.2c0,1.4,0.4,2.4,1.2,3.2C361.1,183.2,362.3,183.6,363.9,183.6z"/>
	<path class="st0" d="M409.8,188l-0.9-4h-0.3c-0.9,1.4-2.2,2.6-3.9,3.4c-1.7,0.8-3.6,1.2-5.8,1.2c-3.7,0-6.5-0.9-8.4-2.8
		c-1.8-1.9-2.8-4.7-2.8-8.4v-20.2h6.6v19c0,2.4,0.5,4.1,1.4,5.3c1,1.2,2.5,1.8,4.5,1.8c2.7,0,4.8-0.8,6.1-2.5
		c1.3-1.6,1.9-4.4,1.9-8.3v-15.4h6.6V188H409.8z"/>
	<path class="st0" d="M440.5,188.6c-3.9,0-6.9-1.4-9.1-4.2H431c0.3,2.6,0.4,4.2,0.4,4.7v12.6h-6.6v-44.5h5.3c0.1,0.6,0.5,2,0.9,4.1
		h0.3c2-3.1,5.1-4.7,9.2-4.7c3.8,0,6.8,1.4,9,4.2c2.1,2.8,3.2,6.7,3.2,11.7c0,5-1.1,9-3.3,11.8C447.4,187.2,444.4,188.6,440.5,188.6
		z M438.9,162c-2.6,0-4.5,0.8-5.7,2.3c-1.2,1.5-1.8,4-1.8,7.3v1c0,3.8,0.6,6.5,1.8,8.2c1.2,1.7,3.1,2.5,5.8,2.5c2.3,0,4-0.9,5.2-2.8
		c1.2-1.9,1.8-4.5,1.8-7.9c0-3.5-0.6-6.1-1.8-7.8C443.1,162.9,441.3,162,438.9,162z"/>
	<path class="st0" d="M472.5,183.3c1.6,0,3.2-0.3,4.8-0.8v4.9c-0.7,0.3-1.7,0.6-2.8,0.8c-1.1,0.2-2.3,0.3-3.6,0.3
		c-6.2,0-9.3-3.3-9.3-9.8v-16.6h-4.2v-2.9l4.5-2.4l2.2-6.5h4v6.9h8.8v5h-8.8v16.5c0,1.6,0.4,2.7,1.2,3.5
		C470.2,182.9,471.2,183.3,472.5,183.3z"/>
	<path class="st0" d="M504.7,179.2c0,3-1.1,5.3-3.3,6.9c-2.2,1.6-5.3,2.4-9.4,2.4c-4.1,0-7.4-0.6-9.9-1.9V181
		c3.6,1.7,7,2.5,10.1,2.5c4,0,6-1.2,6-3.7c0-0.8-0.2-1.4-0.7-2c-0.4-0.5-1.2-1.1-2.2-1.6c-1-0.6-2.4-1.2-4.3-1.9
		c-3.5-1.4-6-2.7-7.2-4.1c-1.3-1.4-1.9-3.2-1.9-5.4c0-2.6,1.1-4.7,3.2-6.1c2.1-1.5,5-2.2,8.7-2.2c3.6,0,7.1,0.7,10.3,2.2l-2.1,4.9
		c-3.3-1.4-6.1-2.1-8.4-2.1c-3.5,0-5.2,1-5.2,3c0,1,0.5,1.8,1.4,2.5s2.9,1.6,5.9,2.8c2.5,1,4.4,1.9,5.5,2.7c1.2,0.8,2,1.8,2.6,2.8
		C504.4,176.5,504.7,177.7,504.7,179.2z"/>
	<path class="st0" d="M523.9,183.3c1.6,0,3.2-0.3,4.8-0.8v4.9c-0.7,0.3-1.7,0.6-2.8,0.8c-1.1,0.2-2.3,0.3-3.6,0.3
		c-6.2,0-9.3-3.3-9.3-9.8v-16.6h-4.2v-2.9l4.5-2.4l2.2-6.5h4v6.9h8.8v5h-8.8v16.5c0,1.6,0.4,2.7,1.2,3.5
		C521.5,182.9,522.6,183.3,523.9,183.3z"/>
	<path class="st0" d="M554.7,188l-1.3-4.3h-0.2c-1.5,1.9-3,3.2-4.5,3.8c-1.5,0.7-3.4,1-5.8,1c-3,0-5.4-0.8-7.1-2.5
		c-1.7-1.6-2.6-3.9-2.6-6.9c0-3.2,1.2-5.6,3.5-7.2c2.4-1.6,6-2.5,10.8-2.6l5.3-0.2v-1.6c0-2-0.5-3.4-1.4-4.4c-0.9-1-2.3-1.5-4.3-1.5
		c-1.6,0-3.1,0.2-4.5,0.7c-1.4,0.5-2.8,1-4.2,1.6l-2.1-4.7c1.7-0.9,3.5-1.5,5.5-2c2-0.5,3.9-0.7,5.6-0.7c3.9,0,6.9,0.9,8.9,2.6
		c2,1.7,3,4.4,3,8.1V188H554.7z M544.9,183.6c2.4,0,4.3-0.7,5.7-2c1.4-1.3,2.2-3.2,2.2-5.6v-2.7l-4,0.2c-3.1,0.1-5.3,0.6-6.7,1.5
		c-1.4,0.9-2.1,2.3-2.1,4.2c0,1.4,0.4,2.4,1.2,3.2C542.1,183.2,543.3,183.6,544.9,183.6z"/>
	<path class="st0" d="M579.5,188.6c-3.8,0-6.8-1.4-9-4.2c-2.2-2.8-3.2-6.7-3.2-11.7c0-5.1,1.1-9,3.3-11.8c2.2-2.8,5.2-4.2,9.1-4.2
		c4.1,0,7.1,1.5,9.3,4.5h0.3c-0.3-2.2-0.5-4-0.5-5.2v-11.2h6.6V188h-5.1l-1.1-4h-0.3C586.6,187,583.5,188.6,579.5,188.6z
		 M581.2,183.3c2.7,0,4.7-0.8,5.9-2.3c1.2-1.5,1.9-4,1.9-7.4v-0.9c0-3.9-0.6-6.6-1.9-8.3c-1.3-1.6-3.2-2.5-5.9-2.5
		c-2.3,0-4.1,0.9-5.3,2.8c-1.2,1.9-1.9,4.5-1.9,8c0,3.4,0.6,6,1.8,7.8C577,182.4,578.8,183.3,581.2,183.3z"/>
	<path class="st0" d="M616.7,183.3c1.6,0,3.2-0.3,4.8-0.8v4.9c-0.7,0.3-1.7,0.6-2.8,0.8c-1.1,0.2-2.3,0.3-3.6,0.3
		c-6.2,0-9.3-3.3-9.3-9.8v-16.6h-4.2v-2.9l4.5-2.4l2.2-6.5h4v6.9h8.8v5h-8.8v16.5c0,1.6,0.4,2.7,1.2,3.5
		C614.4,182.9,615.4,183.3,616.7,183.3z"/>
	<path class="st0" d="M625.8,175.3V170h24v5.3H625.8z"/>
	<path class="st0" d="M685,159.6c0,4.3-1.4,7.5-4.2,9.8c-2.8,2.3-6.8,3.4-11.9,3.4h-4.2V188H658v-40.7h11.7c5.1,0,8.9,1,11.4,3.1
		C683.7,152.5,685,155.5,685,159.6z M664.7,167.2h3.5c3.4,0,5.9-0.6,7.5-1.8c1.6-1.2,2.4-3,2.4-5.6c0-2.3-0.7-4.1-2.1-5.2
		c-1.4-1.2-3.7-1.7-6.7-1.7h-4.6V167.2z"/>
	<path class="st0" d="M708.5,162.1H701V188h-6.6v-25.9h-5.1v-3.1l5.1-2v-2c0-3.6,0.9-6.3,2.6-8.1c1.7-1.8,4.3-2.6,7.8-2.6
		c2.3,0,4.6,0.4,6.8,1.1l-1.7,5c-1.6-0.5-3.2-0.8-4.6-0.8c-1.5,0-2.6,0.5-3.2,1.4c-0.7,0.9-1,2.3-1,4.1v2h7.5V162.1z M720.3,188
		h-6.5v-43.4h6.5V188z"/>
	<path class="st0" d="M743.7,188.6c-4.8,0-8.5-1.4-11.2-4.2c-2.7-2.8-4.1-6.6-4.1-11.6c0-5,1.3-9,3.8-11.9c2.5-2.9,6-4.3,10.3-4.3
		c4.1,0,7.3,1.2,9.6,3.7c2.4,2.5,3.5,5.9,3.5,10.2v3.5h-20.5c0.1,3,0.9,5.3,2.4,6.9c1.5,1.6,3.7,2.4,6.4,2.4c1.8,0,3.5-0.2,5.1-0.5
		c1.6-0.3,3.3-0.9,5.1-1.7v5.3c-1.6,0.8-3.2,1.3-4.8,1.6C747.7,188.4,745.8,188.6,743.7,188.6z M742.5,161.6c-2.1,0-3.7,0.7-5,2
		c-1.3,1.3-2,3.2-2.2,5.8h14c0-2.5-0.7-4.5-1.8-5.8C746.2,162.2,744.6,161.6,742.5,161.6z"/>
	<path class="st0" d="M789.7,157.2v3.6l-5.3,1c0.5,0.7,0.9,1.4,1.2,2.4c0.3,0.9,0.5,2,0.5,3c0,3.2-1.1,5.7-3.3,7.5
		c-2.2,1.8-5.2,2.7-9.1,2.7c-1,0-1.9-0.1-2.7-0.2c-1.4,0.9-2.1,1.9-2.1,3.1c0,0.7,0.3,1.2,1,1.6c0.7,0.4,1.9,0.5,3.6,0.5h5.4
		c3.4,0,6,0.7,7.7,2.2c1.8,1.4,2.6,3.5,2.6,6.3c0,3.5-1.4,6.2-4.3,8.1c-2.9,1.9-7,2.8-12.5,2.8c-4.2,0-7.4-0.7-9.6-2.2
		c-2.2-1.5-3.3-3.6-3.3-6.4c0-1.9,0.6-3.5,1.8-4.8c1.2-1.3,2.9-2.2,5-2.7c-0.9-0.4-1.6-1-2.2-1.8c-0.6-0.8-0.8-1.7-0.8-2.6
		c0-1.2,0.3-2.1,1-2.9c0.7-0.8,1.6-1.6,2.9-2.4c-1.6-0.7-2.9-1.8-3.9-3.4c-1-1.6-1.5-3.4-1.5-5.4c0-3.3,1.1-5.9,3.2-7.8
		c2.1-1.8,5.1-2.8,9-2.8c0.9,0,1.8,0.1,2.7,0.2c1,0.1,1.7,0.2,2.2,0.4H789.7z M765.5,192.8c0,1.4,0.6,2.5,1.9,3.3
		c1.3,0.8,3.1,1.1,5.4,1.1c3.6,0,6.2-0.5,8-1.5c1.7-1,2.6-2.4,2.6-4.1c0-1.3-0.5-2.3-1.4-2.9c-1-0.6-2.7-0.8-5.3-0.8h-5
		c-1.9,0-3.4,0.4-4.5,1.3C766.1,190.1,765.5,191.3,765.5,192.8z M768.3,167.2c0,1.9,0.5,3.4,1.5,4.5c1,1,2.4,1.6,4.3,1.6
		c3.8,0,5.7-2,5.7-6.1c0-2-0.5-3.6-1.4-4.6c-0.9-1.1-2.4-1.6-4.3-1.6c-1.9,0-3.3,0.5-4.3,1.6C768.8,163.5,768.3,165.1,768.3,167.2z"
		/>
	<path class="st0" d="M809.5,188.6c-4.8,0-8.5-1.4-11.2-4.2c-2.7-2.8-4.1-6.6-4.1-11.6c0-5,1.3-9,3.8-11.9c2.5-2.9,6-4.3,10.3-4.3
		c4.1,0,7.3,1.2,9.6,3.7c2.4,2.5,3.5,5.9,3.5,10.2v3.5h-20.5c0.1,3,0.9,5.3,2.4,6.9c1.5,1.6,3.7,2.4,6.4,2.4c1.8,0,3.5-0.2,5.1-0.5
		c1.6-0.3,3.3-0.9,5.1-1.7v5.3c-1.6,0.8-3.2,1.3-4.8,1.6C813.4,188.4,811.6,188.6,809.5,188.6z M808.3,161.6c-2.1,0-3.7,0.7-5,2
		c-1.3,1.3-2,3.2-2.2,5.8h14c0-2.5-0.7-4.5-1.8-5.8C812,162.2,810.4,161.6,808.3,161.6z"/>
	<path class="st0" d="M839.9,188.6c-3.8,0-6.8-1.4-9-4.2c-2.2-2.8-3.2-6.7-3.2-11.7c0-5.1,1.1-9,3.3-11.8c2.2-2.8,5.2-4.2,9.1-4.2
		c4.1,0,7.1,1.5,9.3,4.5h0.3c-0.3-2.2-0.5-4-0.5-5.2v-11.2h6.6V188h-5.1l-1.1-4h-0.3C847,187,843.9,188.6,839.9,188.6z M841.6,183.3
		c2.7,0,4.7-0.8,5.9-2.3c1.2-1.5,1.9-4,1.9-7.4v-0.9c0-3.9-0.6-6.6-1.9-8.3c-1.3-1.6-3.2-2.5-5.9-2.5c-2.3,0-4.1,0.9-5.3,2.8
		c-1.2,1.9-1.9,4.5-1.9,8c0,3.4,0.6,6,1.8,7.8C837.4,182.4,839.2,183.3,841.6,183.3z"/>
	<path class="st0" d="M865.2,149c0-1.2,0.3-2.1,1-2.7c0.6-0.6,1.6-0.9,2.7-0.9c1.2,0,2,0.3,2.7,0.9c0.6,0.6,1,1.5,1,2.7
		c0,1.1-0.3,2-1,2.6c-0.6,0.6-1.5,1-2.7,1c-1.2,0-2.1-0.3-2.7-1C865.5,151,865.2,150.1,865.2,149z M872.2,188h-6.6v-30.8h6.6V188z"
		/>
	<path class="st0" d="M895.6,188.6c-4.8,0-8.5-1.4-11.2-4.2c-2.7-2.8-4.1-6.6-4.1-11.6c0-5,1.3-9,3.8-11.9c2.5-2.9,6-4.3,10.3-4.3
		c4.1,0,7.3,1.2,9.6,3.7c2.4,2.5,3.5,5.9,3.5,10.2v3.5H887c0.1,3,0.9,5.3,2.4,6.9c1.5,1.6,3.7,2.4,6.4,2.4c1.8,0,3.5-0.2,5.1-0.5
		c1.6-0.3,3.3-0.9,5.1-1.7v5.3c-1.6,0.8-3.2,1.3-4.8,1.6C899.5,188.4,897.7,188.6,895.6,188.6z M894.4,161.6c-2.1,0-3.7,0.7-5,2
		c-1.3,1.3-2,3.2-2.2,5.8h14c0-2.5-0.7-4.5-1.8-5.8C898.1,162.2,896.4,161.6,894.4,161.6z"/>
	<path class="st0" d="M942.7,188h-6.6v-19c0-2.4-0.5-4.2-1.4-5.3c-1-1.2-2.5-1.8-4.6-1.8c-2.8,0-4.8,0.8-6.1,2.5
		c-1.3,1.6-1.9,4.4-1.9,8.2V188h-6.6v-30.8h5.1l0.9,4h0.3c0.9-1.5,2.2-2.6,4-3.4c1.7-0.8,3.6-1.2,5.7-1.2c7.4,0,11.1,3.8,11.1,11.3
		V188z"/>
	<path class="st0" d="M973.1,179.2c0,3-1.1,5.3-3.3,6.9s-5.3,2.4-9.4,2.4c-4.1,0-7.4-0.6-9.9-1.9V181c3.6,1.7,7,2.5,10.1,2.5
		c4,0,6-1.2,6-3.7c0-0.8-0.2-1.4-0.7-2c-0.4-0.5-1.2-1.1-2.2-1.6c-1-0.6-2.4-1.2-4.3-1.9c-3.5-1.4-6-2.7-7.2-4.1
		c-1.3-1.4-1.9-3.2-1.9-5.4c0-2.6,1.1-4.7,3.2-6.1c2.1-1.5,5-2.2,8.7-2.2c3.6,0,7.1,0.7,10.3,2.2l-2.1,4.9c-3.3-1.4-6.1-2.1-8.4-2.1
		c-3.5,0-5.2,1-5.2,3c0,1,0.5,1.8,1.4,2.5c0.9,0.7,2.9,1.6,5.9,2.8c2.5,1,4.4,1.9,5.5,2.7c1.2,0.8,2,1.8,2.6,2.8
		C972.8,176.5,973.1,177.7,973.1,179.2z"/>
	<path class="st0" d="M992.2,183.3c1.6,0,3.2-0.3,4.8-0.8v4.9c-0.7,0.3-1.7,0.6-2.8,0.8c-1.1,0.2-2.3,0.3-3.6,0.3
		c-6.2,0-9.3-3.3-9.3-9.8v-16.6h-4.2v-2.9l4.5-2.4l2.2-6.5h4v6.9h8.8v5h-8.8v16.5c0,1.6,0.4,2.7,1.2,3.5
		C989.9,182.9,990.9,183.3,992.2,183.3z"/>
</g>
</svg>
