<?xml version="1.0" encoding="utf-8"?>
<!-- Generator: Adobe Illustrator 21.0.2, SVG Export Plug-In . SVG Version: 6.00 Build 0)  -->
<svg version="1.1" id="Ebene_1" xmlns="http://www.w3.org/2000/svg" xmlns:xlink="http://www.w3.org/1999/xlink" x="0px" y="0px"
	 viewBox="0 0 91 54" style="enable-background:new 0 0 91 54;" xml:space="preserve">
<style type="text/css">
	.st0{fill:#FFFFFF;}
	.st1{fill:#858685;}
	.st2{fill:#AEC90B;}
</style>
<path class="st0" d="M0.3,22.9c0.8,3.4,4.2,6.1,7.6,6.2c0.6,0,1.1,0,1.6-0.2c1.7,2.3,6.9,8.9,12.8,10.3c8.5,1.9,15.1-4.9,15.1-4.9
	c-1.7,6.7-10.4,7.6-10.4,7.6s11.6,4.8,25.3,3.7C62.3,44.8,70,42,78.6,36.3c-6-1.6-13.7-1.6-13.7-1.6s14.3-2.9,22.7-2.1
	c-5.7-5.3-18-6.2-18-6.2s14.4-3,20.9-0.6C79.6,17.4,68.2,18,68.2,18s4.4-2.5,14.4-4c-14.6-9-26.4-3-26.4-3s2-4.5,11.1-7.2
	c-19-4.4-25.7,8-25.7,8s-1.4-6.4,7-10.7C30,1.8,30.7,14.7,30.7,14.7s-4.9-7.1-11.8-6.3c0,0,10.9,10.1,1.6,17.2
	c-3.8,2.9-7.1,1.2-8.2,0.4c0.2-0.8,0.2-1.8-0.1-2.7c-0.8-3.4-4.2-6.1-7.5-6.2C1.5,17-0.5,19.6,0.3,22.9z M23.7,25.1
	c2.3-2.6,6-3.2,8.3-1.4c2.2,1.8,2.2,5.4-0.1,8c-2.4,2.7-6.1,3.3-8.3,1.4C21.4,31.3,21.4,27.7,23.7,25.1z"/>
<path class="st0" d="M27.2,31.4c1,0.8,2.7,0.6,3.7-0.6c1-1.2,1.1-2.8,0.1-3.6c-1-0.8-2.7-0.6-3.7,0.6C26.3,28.9,26.2,30.5,27.2,31.4
	"/>
<path class="st0" d="M67,46.9c0,0,0.3,0.5,0.1,1.8c-0.3,1.3-0.7,1.7-0.7,1.7l19.1-5.8L67,46.9z"/>
<path class="st0" d="M48.2,49.2c0,0-0.4,0.5-0.6,1.8c-0.2,1.3-1.4,1.5-1.4,1.5l14-3.4L48.2,49.2z"/>
<path class="st1" d="M35.8,46.6c-0.8-3.3,1.2-6,4.5-5.9c3.3,0.1,6.7,2.8,7.5,6.1c0.8,3.3-1.2,6-4.5,5.9C40,52.7,36.6,49.9,35.8,46.6
	"/>
<path class="st0" d="M43.5,53.4L43.5,53.4c-3.7-0.1-7.4-3.1-8.3-6.7c-0.5-1.8-0.2-3.6,0.8-4.9c1-1.2,2.5-1.9,4.2-1.9
	c3.7,0.1,7.4,3.1,8.3,6.7c0.5,1.8,0.2,3.6-0.8,4.9C46.7,52.8,45.2,53.4,43.5,53.4"/>
<path class="st2" d="M40.3,41.4c-1.4,0-2.5,0.5-3.2,1.4c-0.7,1-1,2.3-0.6,3.7c0.8,3,3.9,5.6,6.9,5.6h0.1c1.3,0,2.4-0.5,3.1-1.4
	c0.7-1,1-2.3,0.6-3.7C46.4,43.9,43.3,41.4,40.3,41.4L40.3,41.4z"/>
<path class="st1" d="M55.7,45.1c-0.8-3.3,1.2-6,4.5-5.9c3.3,0.1,6.7,2.8,7.6,6.1c0.8,3.3-1.2,6-4.5,5.9
	C59.9,51.2,56.6,48.5,55.7,45.1"/>
<path class="st0" d="M63.4,52L63.4,52c-3.8-0.1-7.4-3.1-8.4-6.7c-0.5-1.8-0.2-3.6,0.8-4.9c1-1.2,2.5-1.9,4.2-1.9
	c3.7,0.1,7.4,3.1,8.3,6.7c0.5,1.8,0.2,3.6-0.8,4.9C66.6,51.3,65.1,52,63.4,52"/>
<path class="st2" d="M60.2,39.9c-1.4,0-2.5,0.5-3.2,1.4c-0.7,1-1,2.3-0.6,3.7c0.8,3,3.9,5.6,6.9,5.6h0.1c1.3,0,2.4-0.5,3.1-1.4
	c0.7-1,1-2.3,0.6-3.7C66.3,42.5,63.2,40,60.2,39.9L60.2,39.9z"/>
</svg>
